 <svg version="1.0" xmlns="http://www.w3.org/2000/svg" width="700.000000pt" height="308.000000pt" viewBox="0 0 700.000000 308.000000" preserveAspectRatio="xMidYMid meet">
<metadata>
Created by potrace 1.12, written by Peter Selinger 2001-2015
</metadata>
<g transform="translate(0.000000,308.000000) scale(0.100000,-0.100000)" fill="#000000" stroke="none">
<path d="M152 3058 c6 -17 66 -35 205 -63 67 -13 144 -33 170 -44 73 -30 222
-64 258 -58 43 7 130 -24 155 -56 25 -31 99 -60 212 -83 81 -16 84 -18 159
-88 110 -104 192 -168 230 -182 54 -20 139 -17 176 5 17 11 34 17 37 14 3 -4
6 -260 6 -570 0 -511 6 -635 24 -525 3 20 6 262 6 538 l0 501 88 0 c73 0 98 4
152 28 36 15 101 40 145 57 44 16 94 42 110 57 45 42 297 161 341 161 14 0 46
21 82 55 88 81 113 76 233 -48 l37 -37 95 7 95 6 77 -67 c86 -76 161 -126 186
-126 9 0 22 -6 28 -13 7 -10 11 -207 13 -655 l3 -641 -25 -3 c-34 -4 -95 -93
-175 -258 -36 -74 -70 -142 -74 -150 -5 -9 -32 -18 -71 -24 -56 -7 -65 -6 -91
13 -16 12 -33 19 -38 16 -5 -3 -24 -40 -41 -83 -36 -87 -108 -223 -124 -234
-5 -4 -15 -4 -21 0 -5 3 -26 6 -45 7 -33 0 -35 2 -60 70 -15 39 -39 94 -53
123 -24 45 -31 52 -57 52 -22 0 -33 7 -44 29 -9 16 -31 38 -50 49 -19 11 -43
33 -52 49 -10 15 -54 66 -99 113 -55 58 -85 99 -95 129 -9 30 -29 56 -62 83
-26 23 -50 49 -54 60 -4 13 -11 17 -24 13 -13 -4 -22 1 -30 15 -6 11 -7 20 -3
20 3 0 -6 14 -22 30 -16 17 -33 30 -38 30 -5 0 -22 9 -37 20 -15 11 -51 25
-78 32 -44 10 -54 9 -78 -6 -14 -10 -31 -31 -37 -46 -14 -38 -50 -58 -72 -40
-8 7 -15 18 -15 25 0 6 -9 20 -19 29 -27 25 -103 12 -141 -23 -38 -35 -96
-122 -104 -158 -4 -15 -26 -57 -49 -92 -23 -36 -49 -85 -58 -110 -22 -61 -69
-182 -79 -201 -4 -8 -25 -18 -48 -22 -47 -8 -86 -26 -162 -78 -73 -50 -79 -58
-99 -137 -16 -63 -19 -68 -43 -65 -19 2 -31 -6 -52 -32 -31 -41 -50 -45 -66
-16 -14 27 -21 26 -75 -15 -25 -20 -60 -38 -76 -42 -16 -3 -58 -31 -92 -62
-34 -31 -85 -66 -112 -78 -113 -50 -203 -95 -255 -128 -30 -20 -71 -38 -90
-41 -26 -4 -42 -15 -58 -41 -13 -19 -22 -37 -19 -39 5 -6 6979 -5 6985 0 11
11 -37 57 -68 66 -20 5 -49 24 -65 41 -17 17 -44 36 -61 44 -56 23 -159 137
-198 220 -20 41 -40 75 -45 75 -5 0 -14 -7 -21 -15 -20 -24 -39 -17 -48 18 -7
27 -13 32 -38 32 -20 0 -30 6 -32 18 -2 11 -23 56 -46 100 -22 45 -49 105 -59
134 -23 68 -43 89 -66 70 -9 -8 -48 -17 -88 -21 l-72 -6 -67 132 c-71 141
-151 274 -183 302 -18 17 -20 16 -52 -30 -18 -27 -41 -77 -51 -113 -10 -35
-25 -72 -34 -82 -15 -16 -19 -15 -90 17 -41 19 -79 34 -83 34 -7 0 -31 -49
-45 -94 -6 -18 -7 -18 -27 0 -25 23 -50 71 -73 140 -9 29 -26 60 -37 70 -32
29 -54 79 -118 264 -80 232 -100 258 -134 180 -9 -22 -17 -43 -17 -46 0 -4
-13 -21 -29 -39 -16 -19 -41 -69 -56 -115 -31 -94 -54 -123 -93 -118 -20 2
-33 14 -50 46 -19 34 -29 42 -52 42 -23 0 -33 -7 -45 -30 -11 -21 -23 -30 -39
-30 -32 0 -108 33 -125 54 -9 11 -25 16 -45 14 -33 -3 -34 -2 -88 116 -30 66
-53 79 -77 46 -26 -33 -44 -17 -72 68 -12 37 -32 88 -45 114 -13 26 -24 54
-24 62 0 7 -8 24 -19 37 l-18 23 -16 -30 c-8 -16 -24 -64 -36 -108 -12 -43
-50 -149 -85 -235 -35 -86 -73 -186 -85 -223 -12 -36 -29 -72 -37 -79 -8 -7
-39 -63 -69 -126 -59 -125 -76 -137 -106 -76 -30 59 -38 66 -65 48 -13 -8 -34
-15 -48 -15 -14 0 -36 -5 -50 -11 -36 -17 -52 1 -67 69 -6 31 -15 65 -21 75
-5 10 -9 305 -8 732 0 622 -1 715 -14 715 -8 0 -18 -4 -21 -10 -3 -5 -14 -10
-24 -10 -25 0 -146 88 -206 149 l-49 51 -81 0 c-48 0 -86 -5 -93 -12 -8 -8
-31 8 -92 65 l-82 77 -56 0 c-56 0 -57 -1 -105 -55 -43 -49 -53 -55 -86 -55
-22 0 -44 -6 -51 -15 -6 -8 -22 -17 -33 -21 -53 -15 -244 -115 -266 -138 -13
-14 -48 -33 -78 -41 -30 -9 -80 -29 -111 -46 -55 -28 -136 -49 -192 -49 -15 0
-44 11 -64 25 -42 28 -78 32 -96 10 -15 -18 -105 -20 -160 -5 -20 5 -56 29
-80 52 -24 24 -61 54 -81 68 -20 14 -58 50 -84 80 -45 50 -53 56 -103 62 -30
4 -92 19 -138 33 -69 21 -88 32 -110 60 -18 24 -35 35 -53 35 -14 0 -35 7 -45
15 -23 18 -58 19 -73 4 -8 -8 -28 -6 -74 10 -35 11 -74 21 -88 21 -14 0 -50
11 -80 25 -29 14 -101 34 -160 45 -58 10 -128 26 -156 34 -60 19 -78 20 -73 4z"></path>
<path d="M6975 3060 c-3 -5 -20 -10 -36 -10 -17 0 -49 -9 -71 -20 -23 -11 -49
-20 -57 -20 -37 0 -153 -54 -195 -91 -39 -35 -50 -39 -79 -34 -24 5 -37 2 -46
-9 -8 -9 -25 -16 -39 -16 -17 0 -46 -21 -98 -75 -41 -41 -74 -77 -74 -80 0
-16 27 3 87 63 69 68 116 92 182 92 19 0 44 13 72 36 56 47 73 55 214 99 154
48 165 52 165 65 0 13 -17 13 -25 0z"></path>
<path d="M6023 2668 c-73 -66 -177 -138 -200 -138 -8 0 -40 26 -70 57 l-56 56
-85 -16 -86 -17 -28 27 c-26 24 -30 25 -54 13 -14 -8 -39 -31 -56 -52 -16 -21
-35 -38 -41 -38 -13 0 -115 -95 -164 -153 -17 -20 -39 -37 -48 -37 -22 0 -67
34 -129 97 -39 40 -60 54 -91 58 -33 6 -44 3 -59 -14 -21 -23 -90 -30 -102
-10 -8 14 -142 5 -158 -11 -5 -5 -28 -10 -49 -10 -33 0 -48 -7 -84 -41 -43
-40 -52 -42 -96 -24 -13 6 -33 -10 -86 -66 -45 -49 -73 -70 -83 -66 -9 3 -30
27 -47 53 -57 84 -157 193 -272 294 -62 55 -77 59 -117 30 -24 -17 -35 -18
-97 -10 -99 13 -103 13 -121 -15 -22 -34 -10 -44 20 -16 22 21 28 22 92 12 61
-8 74 -7 108 11 l39 19 26 -21 c14 -11 46 -36 71 -54 48 -37 171 -175 232
-261 20 -29 47 -55 59 -58 28 -7 66 19 116 79 34 42 40 45 71 40 39 -6 75 9
111 48 14 14 35 26 49 26 13 0 49 7 79 16 32 9 70 14 91 10 120 -19 120 -19
157 4 45 28 67 21 126 -39 58 -59 99 -88 133 -97 23 -6 35 3 103 71 43 43 100
94 128 115 27 21 61 49 74 64 30 31 34 32 70 5 28 -21 30 -21 106 -5 l78 16
52 -49 c29 -28 64 -53 79 -57 32 -8 91 25 177 99 89 77 119 97 145 97 13 0 24
5 24 10 0 6 -16 10 -35 10 -28 0 -47 -11 -102 -62z"></path>
<path d="M6180 2722 c0 -12 58 -27 67 -18 9 9 0 15 -35 22 -20 4 -32 2 -32 -4z"></path>
</g>
</svg>